<?xml version="1.0" encoding="utf-8"?>
<?xml-stylesheet type="text/xsl" href="rss1.xsl"?>
<rss version="2.0" xmlns:atom="http://www.w3.org/2005/Atom" xmlns:content="http://purl.org/rss/1.0/modules/content/" xmlns:dc="http://purl.org/dc/elements/1.1/" xmlns:media="http://search.yahoo.com/mrss/">
<channel>
 <title>Getty</title>
 <link>http://www.gettyimg.com/</link>
 <atom:link href="http://www.gettyimg.com/" rel="self" type="application/rss+xml" />

 
                <item>
                <title><![CDATA[【HD Live Performances】WEB-DL - Tate McRae - Live NHL All-Star Intermission (2024) [1080p 60FPS]]]></title>
                <link><![CDATA[https://sharemania.us/threads/tate-mcrae-live-nhl-all-star-intermission-2024-1080p-60fps.239015/]]></link>
                <description><![CDATA[<article>
<blockquote class="messageText SelectQuoteContainer ugc baseHtml">
<img src="https://i.ibb.co/0CJFqsp/Tate-Mc-Rae-Live-NHL-All-Star-Intermission-2024-001.png" class="bbCodeImage LbImage" alt="[​IMG]" data-url="https://i.ibb.co/0CJFqsp/Tate-Mc-Rae-Live-NHL-All-Star-Intermission-2024-001.png" style=""><img src="https://i.ibb.co/XWdcL4g/Tate-Mc-Rae-Live-NHL-All-Star-Intermission-2024-002.png" class="bbCodeImage LbImage" alt="[​IMG]" data-url="https://i.ibb.co/XWdcL4g/Tate-Mc-Rae-Live-NHL-All-Star-Intermission-2024-002.png" style=""><img src="https://i.ibb.co/Bs9dshH/Tate-Mc-Rae-Live-NHL-All-Star-Intermission-2024-003.png" class="bbCodeImage LbImage" alt="[​IMG]" data-url="https://i.ibb.co/Bs9dshH/Tate-Mc-Rae-Live-NHL-All-Star-Intermission-2024-003.png" style=""><img src="https://i.ibb.co/2vP4yQc/Tate-Mc-Rae-Live-NHL-All-Star-Intermission-2024-004.png" class="bbCodeImage LbImage" alt="[​IMG]" data-url="https://i.ibb.co/2vP4yQc/Tate-Mc-Rae-Live-NHL-All-Star-Intermission-2024-004.png" style=""><img src="https://i.ibb.co/3Sy1CCr/Tate-Mc-Rae-Live-NHL-All-Star-Intermission-2024-005.png" class="bbCodeImage LbImage" alt="[​IMG]" data-url="https://i.ibb.co/3Sy1CCr/Tate-Mc-Rae-Live-NHL-All-Star-Intermission-2024-005.png" style=""><img src="https://i.ibb.co/S5f0R2G/Tate-Mc-Rae-Live-NHL-All-Star-Intermission-2024-006.png" class="bbCodeImage LbImage" alt="[​IMG]" data-url="https://i.ibb.co/S5f0R2G/Tate-Mc-Rae-Live-NHL-All-Star-Intermission-2024-006.png" style=""><br>
<br>
<div class="bbCodeBlock bbCodeCode">
<div class="type">Code:</div>
<pre>General
Unique ID                                : 2707678423959621166191617283432250500 (0x2097ADA70EF893778131C57FBC5FC84)
Complete name                            : Tate McRae - Live NHL All-Star Intermission (2024) 1080p 60fps.mkv
Format                                   : Matroska
Format version                           : Version 4
File size                                : 391 MiB
Duration                                 : 8 min 17 s
Overall bit rate                         : 6 589 kb/s
Encoded date                             : UTC 2024-03-02 03:34:23
Writing application                      : mkvmerge v79.0 ('Funeral Pyres') 64-bit
Writing library                          : libebml v1.4.4 + libmatroska v1.7.1

Video
ID                                       : 1
Format                                   : AVC
Format/Info                              : Advanced Video Codec
Format profile                           : High@L4
Format settings                          : CABAC / 2 Ref Frames
Format settings, CABAC                   : Yes
Format settings, Reference frames        : 2 frames
Codec ID                                 : V_MPEG4/ISO/AVC
Duration                                 : 8 min 17 s
Bit rate                                 : 6 521 kb/s
Width                                    : 1 920 pixels
Height                                   : 1 080 pixels
Display aspect ratio                     : 16:9
Frame rate mode                          : Constant
Frame rate                               : 60.000 FPS
Color space                              : YUV
Chroma subsampling                       : 4:2:0
Bit depth                                : 8 bits
Scan type                                : Progressive
Bits/(Pixel*Frame)                       : 0.052
Stream size                              : 387 MiB (99%)
Default                                  : Yes
Forced                                   : No

Audio
ID                                       : 2
Format                                   : AAC LC
Format/Info                              : Advanced Audio Codec Low Complexity
Codec ID                                 : A_AAC-2
Duration                                 : 8 min 17 s
Bit rate                                 : 64.0 kb/s
Channel(s)                               : 2 channels
Channel layout                           : L R
Sampling rate                            : 48.0 kHz
Frame rate                               : 46.875 FPS (1024 SPF)
Compression mode                         : Lossy
Delay relative to video                  : 21 ms
Stream size                              : 3.80 MiB (1%)
Default                                  : Yes
Forced                                   : No</pre>
</div><br>
<div style="text-align: center">
<div class="bbCodeBlock bbCodeVfcHH HiddenContent">
<div class="attribution type">Hidden Content:</div>
<blockquote>You must either reply or click 'Like' to see the hidden information contained here.</blockquote>
</div></div>
<div class="messageTextEndMarker">&nbsp;</div>
</blockquote>
</article>]]></description>
                <author><![CDATA[Enthwar]]></author>
                </item>

                
                <item>
                <title><![CDATA[【HD Live Performances】WEB-RiP - Kings of Leon 'Live at the O2 London' 1080p DTV WEB-DL E-AC3 H.264]]></title>
                <link><![CDATA[https://sharemania.us/threads/kings-of-leon-live-at-the-o2-london-1080p-dtv-web-dl-e-ac3-h-264.239014/]]></link>
                <description><![CDATA[<article>
<blockquote class="messageText SelectQuoteContainer ugc baseHtml">
thank you
<div class="messageTextEndMarker">&nbsp;</div>
</blockquote>
</article>]]></description>
                <author><![CDATA[fstambuk]]></author>
                </item>

                </channel></rss>